<svg width="947" height="947" viewBox="0 0 947 947" fill="none" xmlns="http://www.w3.org/2000/svg">
<rect width="947" height="947" rx="105" fill="#615FFF"/>
<path d="M558.778 542C545.988 602.487 516.636 658.229 474 703C414.941 640.988 382 558.635 382 473C382 387.365 414.941 305.012 474 243C431.493 243.011 389.82 254.802 353.608 277.063C317.396 299.324 288.062 331.184 268.861 369.108C249.661 407.031 241.345 449.533 244.837 491.897C248.33 534.26 263.494 574.827 288.645 609.094C313.797 643.361 347.954 669.988 387.322 686.018C426.691 702.048 469.731 706.855 511.666 699.905C553.601 692.954 592.79 674.519 624.882 646.645C656.974 618.771 680.714 582.549 693.466 542" stroke="white" stroke-width="32" stroke-linecap="round" stroke-linejoin="round"/>
<path d="M244 473H439.5" stroke="white" stroke-width="32" stroke-linecap="round" stroke-linejoin="round"/>
<path d="M682.334 341.667C682.334 394.925 623.251 450.392 603.411 467.523C601.563 468.912 599.313 469.664 597 469.664C594.688 469.664 592.438 468.912 590.59 467.523C570.75 450.392 511.667 394.925 511.667 341.667C511.667 319.035 520.657 297.33 536.661 281.327C552.664 265.324 574.369 256.333 597 256.333C619.632 256.333 641.337 265.324 657.34 281.327C673.343 297.33 682.334 319.035 682.334 341.667Z" stroke="white" stroke-width="32" stroke-linecap="round" stroke-linejoin="round"/>
<path d="M597 373.667C614.673 373.667 629 359.34 629 341.667C629 323.994 614.673 309.667 597 309.667C579.327 309.667 565 323.994 565 341.667C565 359.34 579.327 373.667 597 373.667Z" stroke="white" stroke-width="32" stroke-linecap="round" stroke-linejoin="round"/>
</svg>
